<svg xmlns="http://www.w3.org/2000/svg" viewBox="0 0 152 152"><defs><style>.cls-1{fill:#e1006a;}.cls-2{fill:#fff;}</style></defs><g id="Layer_2" data-name="Layer 2"><g id="Layer_1-2" data-name="Layer 1"><path class="cls-1" d="M139,152H13.05A13,13,0,0,1,0,139V13.05A13,13,0,0,1,13.05,0H139A13,13,0,0,1,152,13.05V139A13,13,0,0,1,139,152"/><rect class="cls-2" x="28.96" y="51" width="24.08" height="72"/><path class="cls-2" d="M28.16,27.16A12.84,12.84,0,1,0,41,14.32,12.84,12.84,0,0,0,28.16,27.16"/><path class="cls-2" d="M128.33,79.61v43h-23v-43s-8.76-17.18-24-1.18V123h-22V51h22V62.2c2.37-5,9-12.19,24-10.59,28,3,23,28,23,28"/></g></g></svg>