<svg xmlns="http://www.w3.org/2000/svg" viewBox="0 0 160.51 161.16"><defs><style>.cls-1{fill:#fff;}.cls-2{fill:none;}.cls-3{fill:#e1156b;}</style></defs><g id="Layer_2" data-name="Layer 2"><g id="Layer_1-2" data-name="Layer 1"><path class="cls-1" d="M160.51,80.25a80.27,80.27,0,0,1-60,77.65l-.28-30.18c-.23-5.6-4.78-10.13-4.78-10.13,16.87,2.53,27.84-10.12,27.84-10.12,21.66-33.75,1.13-52.88,1.13-52.88,5.62-8.72-1.13-21.65-1.13-21.65S118,28.48,102.17,41.2c-17.61-9.56-33.27-4.74-42.26,0-15.84-12.69-21.13-8.24-21.13-8.24S32,45.87,37.65,54.59c0,0-20.53,19.13,1.13,52.88,0,0,11,12.65,27.84,10.12,0,0-4,4-4.7,9.17-4.67,1.79-9.93,3-14.18,2-10.19-2.46-14.41-12.87-14.41-12.87s-5.62-6.46-12.94-3.09c0,0-.13,3.38,4.95,4.69,0,0,5.46,5.09,7.71,11.64,0,0,4.68,15.51,28.7,8.05l-.17,18.53,0,2.59a80.26,80.26,0,1,1,98.95-78.06Z"/><path class="cls-2" d="M102.17,41.2l-.21.17"/><path class="cls-3" d="M123.33,107.47s-11,12.65-27.84,10.12c0,0,4.55,4.53,4.78,10.13l.28,30.18-1.8.47H61.69l-.13-.06,0-2.59.17-18.53c-24,7.46-28.7-8.05-28.7-8.05-2.25-6.55-7.71-11.64-7.71-11.64-5.08-1.31-4.95-4.69-4.95-4.69,7.32-3.37,12.94,3.09,12.94,3.09s4.22,10.41,14.41,12.87c4.25,1,9.51-.22,14.18-2,.66-5.15,4.7-9.17,4.7-9.17-16.87,2.53-27.84-10.12-27.84-10.12-21.66-33.75-1.13-52.88-1.13-52.88C32,45.87,38.78,32.94,38.78,32.94s5.29-4.45,21.13,8.24c9-4.72,24.65-9.54,42.26,0,15.87-12.72,21.16-8.26,21.16-8.26s6.75,12.93,1.13,21.65C124.46,54.59,145,73.72,123.33,107.47Z"/><path class="cls-1" d="M61.56,158.31l.13.06h-.13Z"/><path class="cls-1" d="M61.69,158.37H98.75C75.34,164.3,63.06,159,61.69,158.37Z"/><path class="cls-1" d="M100.55,157.9v.47h-1.8Z"/><path class="cls-2" d="M60.15,41.37l-.24-.19"/></g></g></svg>