<?xml version="1.0" encoding="utf-8"?>
<!-- Generator: Adobe Illustrator 25.0.0, SVG Export Plug-In . SVG Version: 6.00 Build 0)  -->
<svg version="1.1" id="Layer_1" xmlns="http://www.w3.org/2000/svg" xmlns:xlink="http://www.w3.org/1999/xlink" x="0px" y="0px"
	 viewBox="0 0 1366 768" style="enable-background:new 0 0 1366 768;" xml:space="preserve">
<style type="text/css">
	.st0{fill:#CCBAE8;}
</style>
<path class="st0" d="M549.5,0.5c17.7,102-1,142.7-24,160c-55.6,41.8-143.7-47.5-233-6c-74.9,34.8-60.2,119.5-132,143
	c-61.2,20-148-16.7-175-78C-50.6,137.7,32,40,79.5,0.5C249-140.2,534.4-6.8,549.5,0.5z"/>
<path class="st0" d="M963.5,0.5c-194.4,231.1-172.3,306.8-156,332c78.1,120.6,574.8-63.8,567-114c-5.2-33.3-231.1,4.2-273-92
	c-16.9-38.8,1.9-86.2,26-126"/>
<path class="st0" d="M134.5,746.5c-56.7-94.3,89.7-388.1,276-382c157.6,5.1,282,222.8,245,281c-31.2,49.1-168.2-29.1-273,56
	c-43.8,35.6-48.6,72.6-97,88C233,806.2,159.5,788,134.5,746.5z"/>
<path class="st0" d="M1092.8,547.6c-21-55.1-145.6-66.6-175.6-20.8c-27.5,41.9,16.2,143.9,79.3,147.4
	C1055,677.5,1110.7,594.6,1092.8,547.6z"/>
</svg>
