<svg xmlns="http://www.w3.org/2000/svg" viewBox="0 0 162.51 160.57"><defs><style>.cls-1{fill:#e1006a;}.cls-1,.cls-2{stroke:#e1006a;stroke-miterlimit:10;stroke-width:2px;}.cls-2{fill:none;}</style></defs><g id="Layer_2" data-name="Layer 2"><g id="Layer_2-2" data-name="Layer 2"><path class="cls-1" d="M161.51,81.25a80.27,80.27,0,0,1-60,77.65l-.28-30.18c-.23-5.6-4.78-10.13-4.78-10.13,16.87,2.53,27.84-10.12,27.84-10.12,21.66-33.75,1.13-52.88,1.13-52.88,5.62-8.72-1.13-21.65-1.13-21.65S119,29.48,103.17,42.2c-17.61-9.56-33.27-4.74-42.26,0-15.84-12.69-21.13-8.24-21.13-8.24S33,46.87,38.65,55.59c0,0-20.53,19.13,1.13,52.88,0,0,11,12.65,27.84,10.12,0,0-4,4-4.7,9.17-4.67,1.79-9.93,3-14.18,2-10.19-2.46-14.41-12.87-14.41-12.87s-5.62-6.46-12.94-3.09c0,0-.13,3.38,4.95,4.69,0,0,5.46,5.09,7.71,11.64,0,0,4.68,15.51,28.7,8.05l-.19,21.12a80.26,80.26,0,1,1,98.95-78.06Z"/><path class="cls-2" d="M103.17,42.2l-.21.17"/><line class="cls-2" x1="101.55" y1="159.37" x2="101.55" y2="158.9"/><line class="cls-2" x1="62.56" y1="159.37" x2="62.56" y2="159.31"/><path class="cls-2" d="M61.15,42.37l-.24-.19"/></g></g></svg>